<?xml version="1.0" encoding="iso-8859-1"?>
<!-- Generator: Adobe Illustrator 16.0.0, SVG Export Plug-In . SVG Version: 6.00 Build 0)  -->
<!DOCTYPE svg PUBLIC "-//W3C//DTD SVG 1.1//EN" "http://www.w3.org/Graphics/SVG/1.1/DTD/svg11.dtd">
<svg xmlns="http://www.w3.org/2000/svg" xmlns:xlink="http://www.w3.org/1999/xlink" version="1.1" id="Capa_1" x="0px" y="0px" width="512px" height="512px" viewBox="0 0 956.77 956.77" style="enable-background:new 0 0 956.77 956.77;" xml:space="preserve">
<g>
	<g>
		<g>
			<path d="M467.574,481.056c-15.908,0-26.103,13.746-26.103,36.295c0,22.705,10.193,37.224,26.103,37.224     c15.908,0,26.102-14.519,26.102-37.224C493.675,494.802,483.481,481.056,467.574,481.056z" fill="#E67A7A"/>
			<path d="M390.408,663.903h-25.717v58.899h25.717c24.609,0,38.159-10.508,38.159-30.973     C428.567,671.095,415.018,663.903,390.408,663.903z" fill="#E67A7A"/>
			<path d="M80,925.815h796.77c44.185,0,80-35.818,80-80V447.759c0-44.184-35.815-80-80-80h-80.598l-21.213-21.213L528.896,100.484     c1.681-5.172,2.601-10.688,2.601-16.419c0-29.333-23.779-53.111-53.111-53.111c-29.332,0-53.111,23.779-53.111,53.111     c0,5.732,0.919,11.247,2.601,16.419L181.811,346.546l-21.213,21.213H80c-44.183,0-80,35.816-80,80v398.056     C0,889.997,35.817,925.815,80,925.815z M286.712,819.032h-32.076V638.188h32.076V819.032z M327.022,467.31h18.379l31.509,56.837     l10.348,21.469h0.618c-0.772-10.348-2.317-23.168-2.317-34.441v-43.864h17.145v101.01h-18.379l-31.509-56.838l-10.348-21.47     h-0.618c0.772,10.656,2.317,22.857,2.317,34.134v44.174h-17.145V467.31L327.022,467.31z M431.333,819.032l-38.99-70.789H364.69     v70.789h-32.075V638.188h61.11c37.607,0,66.365,13.272,66.365,53.645c0,27.652-14.379,44.242-35.948,51.709l43.137,75.49H431.333     z M423.092,517.351c0-32.589,18.225-51.896,44.482-51.896c26.41,0,44.636,19.307,44.636,51.896     c0,32.743-18.226,52.821-44.636,52.821C441.316,570.173,423.092,550.095,423.092,517.351z M530.33,819.032h-32.076V638.188     h32.076V819.032z M563.644,568.319h-21.775L521.79,467.31h18.379l8.804,50.968c1.699,10.812,3.397,21.623,4.942,32.278h0.618     c2.161-10.655,4.324-21.622,6.641-32.278l12.356-50.968h15.6l12.355,50.968c2.316,10.502,4.479,21.469,6.797,32.278h0.617     c1.544-10.811,3.242-21.622,4.787-32.278l8.805-50.968h17.144l-19.306,101.009h-22.241l-12.51-53.131     c-1.699-7.877-3.244-15.601-4.479-23.322h-0.618c-1.39,7.725-2.934,15.445-4.633,23.322L563.644,568.319z M711.729,819.032     h-32.905l-56.41-101.76l-18.527-38.437h-1.105c1.384,19.08,4.147,40.926,4.147,61.109v79.086h-30.693V638.188h32.905     l56.41,101.758l18.527,38.438h1.104c-1.382-18.524-4.146-41.479-4.146-61.664v-78.53h30.693V819.032L711.729,819.032z      M888.426,657.821l-17.697,19.908c-9.125-8.849-19.079-14.933-35.946-14.933c-32.076,0-53.646,24.888-53.646,65.535     c0,41.201,19.08,66.088,55.305,66.088c10.23,0,20.187-2.766,25.992-8.018v-38.99h-34.288v-26.268h63.047v79.637     c-12.442,12.168-33.734,21.568-58.622,21.568c-48.114,0-84.339-33.183-84.339-93.188c0-59.176,37.33-94.293,86.273-94.293     C859.391,634.87,877.089,646.206,888.426,657.821z M445.235,125.547c9.088,7.271,20.606,11.629,33.149,11.629     s24.063-4.358,33.149-11.629l242.212,242.212H203.024L445.235,125.547z M71.301,638.188h32.076v72.725h73.278v-72.725h32.076     v180.844h-32.076v-80.189h-73.278v80.189H71.301V638.188z" fill="#E67A7A"/>
		</g>
	</g>
</g>
<g>
</g>
<g>
</g>
<g>
</g>
<g>
</g>
<g>
</g>
<g>
</g>
<g>
</g>
<g>
</g>
<g>
</g>
<g>
</g>
<g>
</g>
<g>
</g>
<g>
</g>
<g>
</g>
<g>
</g>
</svg>
