<?xml version="1.0" encoding="iso-8859-1"?>
<!-- Generator: Adobe Illustrator 16.0.0, SVG Export Plug-In . SVG Version: 6.00 Build 0)  -->
<!DOCTYPE svg PUBLIC "-//W3C//DTD SVG 1.1//EN" "http://www.w3.org/Graphics/SVG/1.1/DTD/svg11.dtd">
<svg xmlns="http://www.w3.org/2000/svg" xmlns:xlink="http://www.w3.org/1999/xlink" version="1.1" id="Capa_1" x="0px" y="0px" width="512px" height="512px" viewBox="0 0 578.759 578.759" style="enable-background:new 0 0 578.759 578.759;" xml:space="preserve">
<g>
	<g>
		<path d="M291.083,10.454c-0.917,0.856-1.644,1.602-1.687,1.602s-0.77-0.741-1.688-1.602c-5.168-4.829-21.855-18.111-36.729-4.47    c-17.557,16.094-2.768,52.742,36.247,69.553c1.152,0.497,2.133,0.918,2.176,0.971c0.043,0.052,1.018-0.287,2.176-0.784    c39.014-16.816,53.803-53.646,36.246-69.739C312.939-7.652,296.257,5.625,291.083,10.454z" fill="#E67A7A"/>
		<circle cx="175.44" cy="50.187" r="41.946" fill="#E67A7A"/>
		<path d="M83.401,331.405c12.068,0,21.851-9.777,21.86-21.846c0.01-0.005,0.029-133.478,0.029-133.478    c0-1.257,1.019-2.271,2.276-2.271h4.628c1.257,0,2.276,1.019,2.276,2.271c0,0,0,374.449,0,374.492    c0,15.567,12.618,28.186,28.186,28.186c15.567,0,28.186-12.618,28.186-28.186c0-0.043,0-220.349,0-220.349    c0-1.606,0.741-2.276,2.328-2.276h4.547c1.587,0,2.329,0.67,2.329,2.276c0,0,0,220.306,0,220.349    c0,15.567,12.618,28.186,28.186,28.186s28.186-12.618,28.186-28.186c0-0.043,0-374.492,0-374.492c0-1.257,1.019-2.276,2.271-2.276    h4.628c1.257,0,2.271,1.019,2.271,2.276c0,0,21.879,133.468,21.889,133.478c0.679,4.055,1.946,7.564,3.638,10.519    c3.022,5.57,8.152,9.797,14.789,10.806c0.837,0.125,1.664,0.196,2.486,0.229c0.33,0.015,0.665,0,0.999,0.005    c0.335,0,0.669,0.015,1-0.005c0.822-0.033,1.65-0.101,2.486-0.229c6.637-1.009,11.766-5.235,14.789-10.806    c1.691-2.954,2.959-6.464,3.639-10.519c0.008-0.005,21.887-133.478,21.887-133.478c0-1.257,1.02-2.276,2.277-2.276h4.627    c1.258,0,2.277,1.019,2.277,2.276c0,0,0,374.449,0,374.492c0,15.567,12.617,28.186,28.186,28.186    c15.566,0,28.186-12.618,28.186-28.186c0-0.043,0-220.349,0-220.349c0-1.606,0.74-2.276,2.328-2.276h4.547    c1.586,0,2.328,0.67,2.328,2.276c0,0,0,220.306,0,220.349c0,15.567,12.617,28.186,28.186,28.186s28.186-12.618,28.186-28.186    c0-0.043,0-374.492,0-374.492c0-1.257,1.018-2.276,2.271-2.276h4.627c1.258,0,2.271,1.019,2.271,2.276    c0,0,0.02,133.468,0.029,133.478c0.01,12.063,9.791,21.846,21.859,21.846c12.072,0,21.859-9.787,21.859-21.86    c0-0.066,0-150.078,0-151.866c-0.004-29.912-23.016-52.924-51.775-52.924c-0.732,0-123.523,0-124.256,0    c-28.764,0-48.031,22.788-51.771,52.924c-0.005,0.043-0.024,0.187-0.052,0.382c-0.029-0.196-0.048-0.339-0.053-0.382    c-3.739-30.136-23.012-52.924-51.771-52.924c-0.731,0-123.523,0-124.255,0c-28.764,0-51.771,23.012-51.771,52.924    c0,1.788,0,151.8,0,151.866C61.541,321.618,71.329,331.405,83.401,331.405z" fill="#E67A7A"/>
		<circle cx="403.347" cy="50.187" r="41.946" fill="#E67A7A"/>
	</g>
</g>
<g>
</g>
<g>
</g>
<g>
</g>
<g>
</g>
<g>
</g>
<g>
</g>
<g>
</g>
<g>
</g>
<g>
</g>
<g>
</g>
<g>
</g>
<g>
</g>
<g>
</g>
<g>
</g>
<g>
</g>
</svg>
