<?xml version="1.0" encoding="iso-8859-1"?>
<!-- Generator: Adobe Illustrator 19.0.0, SVG Export Plug-In . SVG Version: 6.00 Build 0)  -->
<svg version="1.1" id="Layer_1" xmlns="http://www.w3.org/2000/svg" xmlns:xlink="http://www.w3.org/1999/xlink" x="0px" y="0px"
	 viewBox="0 0 501.998 501.998" style="enable-background:new 0 0 501.998 501.998;" xml:space="preserve">
<g>
	<g>
		<g>
			<path d="M228.127,449.206l-17.277-76.079c-0.101-0.444-0.231-0.881-0.392-1.307c-3.434-9.129-7.534-18.105-12.187-26.68
				c-0.073-0.135-0.149-0.268-0.228-0.399l-71.026-117.674c-8.002-15.352-25.618-22.591-41.729-18.082L71.955,95.827
				c-2.331-19.77-20.31-33.963-40.077-31.627C12.11,66.528-2.079,84.507,0.25,104.276c0.004,0.036,0.008,0.072,0.013,0.108
				l13.902,107.9c3.511,27.251,12.339,53.086,26.239,76.787l68.998,117.652c0.073,0.125,0.149,0.249,0.228,0.371
				c3.847,5.95,6.712,12.44,8.516,19.292l10.927,41.494c4.346,16.496,19.962,26.344,41.773,26.344h22.962
				c9.841,0,19.345-4.118,26.074-11.297c6.67-7.118,10-16.346,9.375-25.986C229.094,454.406,228.714,451.808,228.127,449.206z
				 M205.291,469.249c-2.963,3.162-7.147,4.975-11.481,4.975h-22.962c-7.252,0-19.811-1.486-22.433-11.438l-10.927-41.493
				c-2.324-8.826-6.004-17.191-10.939-24.868L57.657,278.954c-12.531-21.367-20.49-44.658-23.655-69.225l-13.895-107.84
				c-1.011-8.799,5.31-16.79,14.112-17.827c8.814-1.041,16.834,5.289,17.874,14.106l14.561,123.581
				c-7.647,10.139-9.675,23.971-4.218,36.319c0.261,0.592,0.541,1.181,0.837,1.765c0.111,0.218,0.229,0.433,0.356,0.643
				l28.532,47.315c1.878,3.114,5.184,4.837,8.573,4.837c1.758,0,3.54-0.464,5.155-1.438c4.729-2.852,6.251-8.998,3.399-13.728
				l-28.321-46.965c-0.082-0.169-0.16-0.339-0.236-0.511c-3.384-7.657-0.301-16.587,7-20.589c7.916-4.009,17.618-0.837,21.634,7.075
				c0.11,0.218,0.229,0.432,0.355,0.642l71.08,117.764c4.065,7.514,7.663,15.367,10.7,23.354l17.121,75.39
				c0.354,1.57,0.583,3.123,0.68,4.616C209.564,462.299,208.14,466.21,205.291,469.249z"/>
			<path d="M121.969,318.493c-2.852-4.729-8.997-6.251-13.728-3.399c-4.729,2.852-6.251,8.998-3.399,13.728l6.34,10.515
				c1.878,3.114,5.184,4.837,8.573,4.837c1.758,0,3.539-0.464,5.155-1.438c4.729-2.852,6.251-8.998,3.399-13.728L121.969,318.493z"
				/>
			<path d="M470.121,64.199c-19.76-2.331-37.746,11.857-40.077,31.628l-13.333,113.159c-16.111-4.505-33.728,2.732-41.729,18.082
				l-71.026,117.674c-0.079,0.131-0.155,0.264-0.228,0.399c-4.652,8.574-8.752,17.551-12.187,26.68
				c-0.161,0.426-0.292,0.862-0.393,1.307l-17.28,76.093c-0.482,2.139-0.827,4.292-1.023,6.398
				c-0.916,9.826,2.385,19.661,9.056,26.983c6.729,7.386,16.319,11.622,26.309,11.622h22.941c21.811,0,37.427-9.848,41.773-26.346
				l10.927-41.493c1.804-6.851,4.669-13.341,8.516-19.292c0.079-0.122,0.155-0.245,0.228-0.371l68.998-117.651
				c13.9-23.701,22.728-49.536,26.239-76.788l13.902-107.9c0.005-0.036,0.009-0.072,0.013-0.108
				C504.078,84.507,489.89,66.528,470.121,64.199z M481.892,101.889l-13.895,107.84c-3.166,24.567-11.124,47.858-23.655,69.226
				l-68.892,117.47c-4.936,7.677-8.615,16.042-10.939,24.868l-10.926,41.491c-2.623,9.954-15.181,11.44-22.433,11.44h-22.941
				c-4.44,0-8.533-1.808-11.525-5.092c-2.933-3.219-4.327-7.359-3.926-11.657c0.117-1.253,0.325-2.55,0.616-3.84l17.124-75.404
				c3.038-7.987,6.635-15.84,10.701-23.354l71.08-117.763c0.126-0.209,0.245-0.423,0.355-0.642
				c4.016-7.913,13.717-11.085,21.632-7.076c7.302,4.002,10.385,12.933,7,20.594c-0.075,0.17-0.153,0.339-0.235,0.508
				l-28.321,46.965c-2.852,4.729-1.33,10.875,3.399,13.728c1.616,0.974,3.396,1.438,5.155,1.438c3.389,0,6.695-1.724,8.573-4.837
				l28.532-47.315c0.126-0.21,0.245-0.424,0.356-0.643c0.296-0.584,0.576-1.173,0.835-1.762c5.458-12.35,3.43-26.183-4.217-36.322
				l14.562-123.581c1.04-8.818,9.055-15.141,17.875-14.107C476.582,85.099,482.903,93.09,481.892,101.889z"/>
			<path d="M393.758,315.094c-4.729-2.852-10.876-1.331-13.728,3.399l-6.34,10.515c-2.852,4.73-1.33,10.876,3.399,13.728
				c1.616,0.974,3.396,1.438,5.155,1.438c3.389,0,6.695-1.724,8.573-4.837l6.34-10.515
				C400.01,324.091,398.488,317.945,393.758,315.094z"/>
			<path d="M380.406,137.18C380.406,65.825,322.355,7.774,251,7.774c-71.355,0-129.406,58.051-129.406,129.406
				c0,69.012,54.302,125.575,122.422,129.216c2.201,0.316,4.43,0.487,6.687,0.487c2.159,0,4.294-0.155,6.402-0.445
				C325.636,263.239,380.406,206.488,380.406,137.18z M322.496,178.826c1.946-10.203,3.183-21.004,3.62-32.24h32.587
				C354.23,159.014,341.139,170.447,322.496,178.826z M358.311,126.586H326.04c-0.505-10.85-1.757-21.284-3.675-31.151
				C340.427,103.457,353.455,114.373,358.311,126.586z M348.019,86.657c-9.133-6.002-19.907-11.123-31.961-15.14
				c-4.074-11.994-9.242-22.703-15.292-31.755C320.951,50.115,337.512,66.564,348.019,86.657z M241.297,29.718v14.753
				c0,5.035,4.477,9.116,10,9.116c5.523,0,10-4.081,10-9.116V30.165c12.038,4.787,22.815,17.515,30.803,35.176
				c-12.864-2.437-26.669-3.755-41.1-3.755c-14.672,0-28.701,1.359-41.748,3.875C217.507,47.158,228.753,34.13,241.297,29.718z
				 M200.322,40.243c-5.951,9.008-11.038,19.628-15.052,31.503c-11.781,3.982-22.327,9.021-31.288,14.911
				C164.328,66.868,180.551,50.621,200.322,40.243z M178.985,95.729c-1.887,9.781-3.119,20.115-3.619,30.857h-31.677
				C148.487,114.521,161.262,103.722,178.985,95.729z M143.165,146.586h32.125c0.438,11.276,1.682,22.115,3.641,32.351
				c-6.128-2.73-11.697-5.817-16.542-9.228C155.037,164.533,146.594,156.721,143.165,146.586z M154.377,188.453
				c8.781,5.662,19.114,10.499,30.743,14.318c3.902,11.651,8.834,22.107,14.6,31.027
				C180.472,223.542,164.634,207.702,154.377,188.453z M241.296,245.235c-12.702-4.468-24.075-17.767-32.358-36.434
				c3.506,0.649,7.091,1.216,10.752,1.7c5.479,0.726,10.5-3.13,11.223-8.605c0.723-5.475-3.129-10.501-8.605-11.224
				c-7.304-0.964-14.357-2.332-21.057-4.057c-3.231-12.272-5.309-25.814-5.938-40.029h45.983V245.235z M251.297,89.586
				c-5.523,0-10,4.477-10,10v27h-45.899c0.728-13.751,2.815-26.841,5.983-38.729c14.989-3.994,31.892-6.271,49.619-6.271
				c17.475,0,34.149,2.212,48.98,6.102c3.193,11.933,5.297,25.082,6.029,38.898h-44.712v-27
				C261.297,94.063,256.82,89.586,251.297,89.586z M271.796,202.029c0.725,4.976,4.999,8.56,9.883,8.56
				c0.48,0,0.966-0.035,1.454-0.106c3.144-0.458,6.237-0.986,9.284-1.57c-8.019,18.026-18.923,31.026-31.12,35.876v-98.202h44.795
				c-0.629,14.225-2.709,27.776-5.944,40.055c-6.304,1.668-12.955,3.038-19.898,4.05
				C274.784,191.488,270.999,196.563,271.796,202.029z M301.368,234.281c5.911-9.04,10.96-19.679,14.936-31.564
				c11.865-3.971,22.555-9.043,31.752-15.085C337.657,207.557,321.303,223.898,301.368,234.281z"/>
		</g>
	</g>
</g>
<g>
</g>
<g>
</g>
<g>
</g>
<g>
</g>
<g>
</g>
<g>
</g>
<g>
</g>
<g>
</g>
<g>
</g>
<g>
</g>
<g>
</g>
<g>
</g>
<g>
</g>
<g>
</g>
<g>
</g>
</svg>
