<?xml version="1.0" encoding="utf-8"?>
<!-- Generator: Adobe Illustrator 16.0.0, SVG Export Plug-In . SVG Version: 6.00 Build 0)  -->
<!DOCTYPE svg PUBLIC "-//W3C//DTD SVG 1.1//EN" "http://www.w3.org/Graphics/SVG/1.1/DTD/svg11.dtd">
<svg version="1.1" id="Layer_1" xmlns="http://www.w3.org/2000/svg" xmlns:xlink="http://www.w3.org/1999/xlink" x="0px" y="0px"
	 width="512px" height="512px" viewBox="0 0 512 512" enable-background="new 0 0 512 512" xml:space="preserve">
<g>
	<path d="M486.244,320.341c-15.941-51.762-60.197-89.763-113.756-97.717c-56.436-8.375-106.122-40.958-136.345-88.823
		c-5.319,4.581-11.599,8.143-18.566,10.368c-10.335,3.265-20.144,6.005-29.382,8.213c0.699,4.583,1.358,9.308,1.96,14.175
		c2.399,19.497-6.164,38.563-22.29,49.721c-8.855,6.147-19.241,9.396-30.033,9.396c-8.385,0-16.76-2.033-24.34-5.937
		c-4.334-2.257-8.539-4.521-12.589-6.791c-6.253,9.312-12.612,17.814-17.996,24.666c-3.792,4.838-8.3,8.899-13.318,12.084
		l89.997,145.405c41.067,66.351,113.381,106.899,191.434,107.337c44.793,0.245,87.031-20.842,113.723-56.803
		C491.447,409.683,499.434,363.157,486.244,320.341z M460.663,382.667c-1.708,7.774-8.604,13.068-16.249,13.068
		c-1.187,0-2.39-0.122-3.594-0.39c-8.994-1.977-14.671-10.865-12.686-19.851c8.863-40.255-16.656-80.233-56.91-89.105
		c-8.994-1.984-14.671-10.865-12.687-19.851c1.968-8.986,10.897-14.679,19.843-12.678
		C436.575,266.693,473.479,324.473,460.663,382.667z"/>
	<path d="M128.862,190.185c2.83,1.456,5.903,2.18,8.97,2.18c3.879,0,7.734-1.159,11.035-3.448c5.938-4.106,9.109-11.149,8.23-18.297
		c-1.74-14.012-4.392-30.342-8.359-45.224c18.98-1.586,41.051-7.376,58.795-12.987c6.881-2.196,11.988-7.97,13.272-15.044
		c1.285-7.1-1.479-14.305-7.14-18.762c-20.689-16.167-49.379-35.888-70.621-39.734c-4.407-0.797-9.563-1.204-15.175-1.326
		c-0.829-0.016-1.659-0.024-2.48-0.024c-14.448,0-28.456,2.653-41.47,7.566L64.496,17.082l-1.75-2.522
		c-2.097-3.009-5.301-5.074-8.912-5.725c-3.594-0.65-7.32,0.163-10.327,2.253l-24.3,16.866c-6.279,4.351-7.822,12.963-3.48,19.233
		l1.746,2.52l19.416,28.007c-9.617,10.999-17.28,23.902-22.333,38.271c-1.903,5.392-3.351,10.458-4.163,14.923
		c-3.84,21.25,4.586,55.031,12.49,80.07c2.164,6.864,7.969,11.971,15.061,13.248c1.146,0.207,2.303,0.309,3.44,0.309
		c5.912,0,11.581-2.708,15.313-7.474c11.498-14.646,24.624-33.301,32.74-50.525C102.01,175.474,116.355,183.679,128.862,190.185z"/>
</g>
</svg>
